<?xml version="1.0" encoding="UTF-8" standalone="no"?> <svg xmlns="http://www.w3.org/2000/svg" xmlns:xlink="http://www.w3.org/1999/xlink" xmlns:serif="http://www.serif.com/" width="100%" height="100%" viewBox="0 0 2198 355" xml:space="preserve" style="fill-rule:evenodd;clip-rule:evenodd;stroke-linejoin:round;stroke-miterlimit:2;"> <g transform="matrix(1,0,0,1,-46.7,-322)"> <g transform="matrix(1,0,0,1,-209.5,-39.25)"> <path d="M262.8,650C260.8,650 259.2,649.4 258,648.2C256.8,647 256.2,645.4 256.2,643.4L256.2,446.9C256.2,444.7 256.8,443 258,441.8C259.2,440.6 260.8,440 262.8,440L326.7,440C347.9,440 364.5,443.1 376.5,449.3C388.5,455.5 397.05,464.65 402.15,476.75C407.25,488.85 409.9,503.6 410.1,521C410.3,530 410.4,537.95 410.4,544.85C410.4,551.75 410.3,559.7 410.1,568.7C409.7,587.1 407,602.3 402,614.3C397,626.3 388.6,635.25 376.8,641.15C365,647.05 348.8,650 328.2,650L262.8,650ZM275.1,632L326.7,632C342.7,632 355.35,629.85 364.65,625.55C373.95,621.25 380.65,614.35 384.75,604.85C388.85,595.35 391,582.8 391.2,567.2C391.4,561.2 391.5,555.95 391.5,551.45L391.5,538.1C391.5,533.7 391.4,528.5 391.2,522.5C390.8,500.5 385.7,484.25 375.9,473.75C366.1,463.25 349.2,458 325.2,458L275.1,458L275.1,632Z" style="fill:rgb(15,15,15);fill-rule:nonzero;"></path> <path d="M462,650C460,650 458.4,649.4 457.2,648.2C456,647 455.4,645.4 455.4,643.4L455.4,500.6C455.4,498.6 456,497 457.2,495.8C458.4,494.6 460,494 462,494L467.1,494C469.1,494 470.7,494.6 471.9,495.8C473.1,497 473.7,498.6 473.7,500.6L473.7,643.4C473.7,645.4 473.1,647 471.9,648.2C470.7,649.4 469.1,650 467.1,650L462,650ZM458.7,461.9C456.7,461.9 455.1,461.3 453.9,460.1C452.7,458.9 452.1,457.3 452.1,455.3L452.1,443.9C452.1,441.9 452.7,440.25 453.9,438.95C455.1,437.65 456.7,437 458.7,437L470.1,437C472.1,437 473.75,437.65 475.05,438.95C476.35,440.25 477,441.9 477,443.9L477,455.3C477,457.3 476.35,458.9 475.05,460.1C473.75,461.3 472.1,461.9 470.1,461.9L458.7,461.9Z" style="fill:rgb(15,15,15);fill-rule:nonzero;"></path> <path d="M580.5,716C567.7,716 557.25,714.3 549.15,710.9C541.05,707.5 534.75,703.35 530.25,698.45C525.75,693.55 522.6,688.65 520.8,683.75C519,678.85 518,674.9 517.8,671.9C517.6,669.9 518.2,668.25 519.6,666.95C521,665.65 522.6,665 524.4,665L528.6,665C530.2,665 531.6,665.35 532.8,666.05C534,666.75 535,668.5 535.8,671.3C537,674.5 538.95,678.25 541.65,682.55C544.35,686.85 548.65,690.6 554.55,693.8C560.45,697 568.6,698.6 579,698.6C590,698.6 599.2,697.2 606.6,694.4C614,691.6 619.65,686.65 623.55,679.55C627.45,672.45 629.4,662.6 629.4,650L629.4,629.3C624.4,636.1 617.85,641.75 609.75,646.25C601.65,650.75 591.4,653 579,653C567.4,653 557.55,650.9 549.45,646.7C541.35,642.5 534.8,636.9 529.8,629.9C524.8,622.9 521.1,615.1 518.7,606.5C516.3,597.9 515,589.2 514.8,580.4C514.6,574.8 514.6,569.2 514.8,563.6C515,554.8 516.3,546.1 518.7,537.5C521.1,528.9 524.8,521.1 529.8,514.1C534.8,507.1 541.35,501.5 549.45,497.3C557.55,493.1 567.4,491 579,491C591.4,491 601.65,493.3 609.75,497.9C617.85,502.5 624.4,508.1 629.4,514.7L629.4,500.9C629.4,498.9 630,497.25 631.2,495.95C632.4,494.65 634,494 636,494L640.8,494C642.8,494 644.45,494.65 645.75,495.95C647.05,497.25 647.7,498.9 647.7,500.9L647.7,647C647.7,659.8 645.8,671.4 642,681.8C638.2,692.2 631.45,700.5 621.75,706.7C612.05,712.9 598.3,716 580.5,716ZM580.8,635.6C592.2,635.6 601.4,632.9 608.4,627.5C615.4,622.1 620.55,615.35 623.85,607.25C627.15,599.15 629,591 629.4,582.8C629.6,579.8 629.7,576.2 629.7,572C629.7,567.8 629.6,564.2 629.4,561.2C629,553 627.15,544.85 623.85,536.75C620.55,528.65 615.4,521.9 608.4,516.5C601.4,511.1 592.2,508.4 580.8,508.4C569.2,508.4 559.95,511 553.05,516.2C546.15,521.4 541.2,528.2 538.2,536.6C535.2,545 533.5,554 533.1,563.6C532.9,569.2 532.9,574.8 533.1,580.4C533.5,590 535.2,599 538.2,607.4C541.2,615.8 546.15,622.6 553.05,627.8C559.95,633 569.2,635.6 580.8,635.6Z" style="fill:rgb(15,15,15);fill-rule:nonzero;"></path> <path d="M703.2,650C701.2,650 699.6,649.4 698.4,648.2C697.2,647 696.6,645.4 696.6,643.4L696.6,500.6C696.6,498.6 697.2,497 698.4,495.8C699.6,494.6 701.2,494 703.2,494L708.3,494C710.3,494 711.9,494.6 713.1,495.8C714.3,497 714.9,498.6 714.9,500.6L714.9,643.4C714.9,645.4 714.3,647 713.1,648.2C711.9,649.4 710.3,650 708.3,650L703.2,650ZM699.9,461.9C697.9,461.9 696.3,461.3 695.1,460.1C693.9,458.9 693.3,457.3 693.3,455.3L693.3,443.9C693.3,441.9 693.9,440.25 695.1,438.95C696.3,437.65 697.9,437 699.9,437L711.3,437C713.3,437 714.95,437.65 716.25,438.95C717.55,440.25 718.2,441.9 718.2,443.9L718.2,455.3C718.2,457.3 717.55,458.9 716.25,460.1C714.95,461.3 713.3,461.9 711.3,461.9L699.9,461.9Z" style="fill:rgb(15,15,15);fill-rule:nonzero;"></path> </g> <g transform="matrix(-2.15421,2.63814e-16,-1.39164e-16,-1.13636,1865.05,1269.37)"> <path d="M844,811.74C844,809.676 843.116,808 842.027,808L631.973,808C630.884,808 630,809.676 630,811.74L630,826.26C630,828.324 630.884,830 631.973,830L842.027,830C843.116,830 844,828.324 844,826.26L844,811.74Z" style="fill:url(#_Linear1);"></path> </g> <g transform="matrix(1,0,0,1,-52.75,-242)"> <path d="M795.4,852C770.6,852 749.867,848.333 733.2,841C716.533,833.667 703.867,824.067 695.2,812.2C686.533,800.333 681.933,787.867 681.4,774.8C681.4,772.4 682.2,770.4 683.8,768.8C685.4,767.2 687.4,766.4 689.8,766.4L725.4,766.4C728.867,766.4 731.467,767.133 733.2,768.6C734.933,770.067 736.467,771.867 737.8,774C739.4,779.067 742.467,784.067 747,789C751.533,793.933 757.733,798 765.6,801.2C773.467,804.4 783.4,806 795.4,806C814.6,806 828.933,802.8 838.4,796.4C847.867,790 852.6,781.333 852.6,770.4C852.6,762.667 850.067,756.467 845,751.8C839.933,747.133 832.133,742.867 821.6,739C811.067,735.133 797.133,731.067 779.8,726.8C759.8,722 743.067,716.2 729.6,709.4C716.133,702.6 706,694 699.2,683.6C692.4,673.2 689,660 689,644C689,628.533 693.2,614.8 701.6,602.8C710,590.8 722,581.333 737.6,574.4C753.2,567.467 771.8,564 793.4,564C810.733,564 826.067,566.333 839.4,571C852.733,575.667 863.8,581.8 872.6,589.4C881.4,597 888.133,605.133 892.8,613.8C897.467,622.467 899.933,630.933 900.2,639.2C900.2,641.333 899.467,643.267 898,645C896.533,646.733 894.467,647.6 891.8,647.6L854.6,647.6C852.467,647.6 850.333,647.067 848.2,646C846.067,644.933 844.333,642.933 843,640C841.4,631.733 836.2,624.667 827.4,618.8C818.6,612.933 807.267,610 793.4,610C779,610 767.4,612.667 758.6,618C749.8,623.333 745.4,631.6 745.4,642.8C745.4,650.267 747.6,656.467 752,661.4C756.4,666.333 763.467,670.667 773.2,674.4C782.933,678.133 795.8,682.133 811.8,686.4C834.467,691.467 853,697.333 867.4,704C881.8,710.667 892.333,719.133 899,729.4C905.667,739.667 909,752.667 909,768.4C909,786 904.267,801 894.8,813.4C885.333,825.8 872.067,835.333 855,842C837.933,848.667 818.067,852 795.4,852Z" style="fill:rgb(15,15,15);fill-rule:nonzero;"></path> <path d="M1040.2,774C1037.53,774 1035.27,773.067 1033.4,771.2C1031.53,769.333 1030.6,767.067 1030.6,764.4L1030.6,617.2L956.6,617.2C953.933,617.2 951.667,616.267 949.8,614.4C947.933,612.533 947,610.267 947,607.6L947,578C947,575.067 947.933,572.667 949.8,570.8C951.667,568.933 953.933,568 956.6,568L1160.6,568C1163.53,568 1165.93,568.933 1167.8,570.8C1169.67,572.667 1170.6,575.067 1170.6,578L1170.6,607.6C1170.6,610.267 1169.67,612.533 1167.8,614.4C1165.93,616.267 1163.53,617.2 1160.6,617.2L1087,617.2L1087,764.4C1087,767.067 1086.07,769.333 1084.2,771.2C1082.33,773.067 1079.93,774 1077,774L1040.2,774Z" style="fill:rgb(15,15,15);fill-rule:nonzero;"></path> <g transform="matrix(1,0,0,0.985915,-2.27374e-13,8)"> <path d="M1336.6,852C1313.4,852 1293.27,848.067 1276.2,840.2C1259.13,832.333 1245.93,820.2 1236.6,803.8C1227.27,787.4 1222.6,766.4 1222.6,740.8L1222.6,578C1222.6,575.067 1223.53,572.667 1225.4,570.8C1227.27,568.933 1229.53,568 1232.2,568L1268.6,568C1271.53,568 1273.87,568.933 1275.6,570.8C1277.33,572.667 1278.2,575.067 1278.2,578L1278.2,740.8C1278.2,762.667 1283.4,778.867 1293.8,789.4C1304.2,799.933 1318.47,805.2 1336.6,805.2C1354.73,805.2 1368.93,799.933 1379.2,789.4C1389.47,778.867 1394.6,762.667 1394.6,740.8L1394.6,578C1394.6,575.067 1395.53,572.667 1397.4,570.8C1399.27,568.933 1401.67,568 1404.6,568L1440.6,568C1443.53,568 1445.87,568.933 1447.6,570.8C1449.33,572.667 1450.2,575.067 1450.2,578L1450.2,740.8C1450.2,766.4 1445.6,787.4 1436.4,803.8C1427.2,820.2 1414.13,832.333 1397.2,840.2C1380.27,848.067 1360.07,852 1336.6,852Z" style="fill:rgb(15,15,15);fill-rule:nonzero;"></path> </g> <path d="M1533.8,848C1531.13,848 1528.87,847.067 1527,845.2C1525.13,843.333 1524.2,841.067 1524.2,838.4L1524.2,578C1524.2,575.067 1525.13,572.667 1527,570.8C1528.87,568.933 1531.13,568 1533.8,568L1631.4,568C1658.33,568 1680.53,572.133 1698,580.4C1715.47,588.667 1728.67,600.933 1737.6,617.2C1746.53,633.467 1751.13,653.333 1751.4,676.8C1751.93,688.533 1752.2,698.933 1752.2,708C1752.2,717.067 1751.93,727.333 1751.4,738.8C1750.87,763.6 1746.33,784.067 1737.8,800.2C1729.27,816.333 1716.4,828.333 1699.2,836.2C1682,844.067 1660.07,848 1633.4,848L1533.8,848ZM1579.8,802L1631.4,802C1646.33,802 1658.47,799.867 1667.8,795.6C1677.13,791.333 1684,784.467 1688.4,775C1692.8,765.533 1695.13,753.067 1695.4,737.6C1695.67,729.6 1695.87,722.6 1696,716.6C1696.13,710.6 1696.13,704.6 1696,698.6C1695.87,692.6 1695.67,685.733 1695.4,678C1694.87,656.133 1689.4,640 1679,629.6C1668.6,619.2 1652.07,614 1629.4,614L1579.8,614L1579.8,802Z" style="fill:rgb(15,15,15);fill-rule:nonzero;"></path> <g transform="matrix(1,0,0,1.38614,2.27374e-13,-327.446)"> <path d="M1829,848C1826.33,848 1824.07,847.067 1822.2,845.2C1820.33,843.333 1819.4,841.067 1819.4,838.4L1819.4,655.6C1819.4,652.933 1820.33,650.667 1822.2,648.8C1824.07,646.933 1826.33,646 1829,646L1866.6,646C1869.53,646 1871.87,646.933 1873.6,648.8C1875.33,650.667 1876.2,652.933 1876.2,655.6L1876.2,838.4C1876.2,841.067 1875.33,843.333 1873.6,845.2C1871.87,847.067 1869.53,848 1866.6,848L1829,848Z" style="fill:rgb(15,15,15);fill-rule:nonzero;"></path> </g> <g transform="matrix(1,0,0,0.986111,0,7.83333)"> <path d="M2060.6,852C2036.87,852 2016.47,848.067 1999.4,840.2C1982.33,832.333 1969,820.2 1959.4,803.8C1949.8,787.4 1944.6,766.933 1943.8,742.4C1943.53,730.933 1943.4,719.6 1943.4,708.4C1943.4,697.2 1943.53,685.733 1943.8,674C1944.6,649.733 1949.93,629.467 1959.8,613.2C1969.67,596.933 1983.2,584.667 2000.4,576.4C2017.6,568.133 2037.67,564 2060.6,564C2083.53,564 2103.67,568.133 2121,576.4C2138.33,584.667 2151.93,596.933 2161.8,613.2C2171.67,629.467 2177,649.733 2177.8,674C2178.33,685.733 2178.6,697.2 2178.6,708.4C2178.6,719.6 2178.33,730.933 2177.8,742.4C2177,766.933 2171.8,787.4 2162.2,803.8C2152.6,820.2 2139.2,832.333 2122,840.2C2104.8,848.067 2084.33,852 2060.6,852ZM2060.6,806C2077.93,806 2092.07,800.867 2103,790.6C2113.93,780.333 2119.8,763.6 2120.6,740.4C2121.13,728.667 2121.4,717.8 2121.4,707.8C2121.4,697.8 2121.13,687.067 2120.6,675.6C2120.07,660.133 2117.2,647.533 2112,637.8C2106.8,628.067 2099.8,621 2091,616.6C2082.2,612.2 2072.07,610 2060.6,610C2049.4,610 2039.4,612.2 2030.6,616.6C2021.8,621 2014.8,628.067 2009.6,637.8C2004.4,647.533 2001.53,660.133 2001,675.6C2000.73,687.067 2000.6,697.8 2000.6,707.8C2000.6,717.8 2000.73,728.667 2001,740.4C2001.8,763.6 2007.67,780.333 2018.6,790.6C2029.53,800.867 2043.53,806 2060.6,806Z" style="fill:rgb(15,15,15);fill-rule:nonzero;"></path> </g> <path d="M2247.4,848C2244.73,848 2242.47,847.067 2240.6,845.2C2238.73,843.333 2237.8,841.067 2237.8,838.4L2237.8,798.8C2237.8,795.867 2238.73,793.467 2240.6,791.6C2242.47,789.733 2244.73,788.8 2247.4,788.8L2287.4,788.8C2290.07,788.8 2292.33,789.733 2294.2,791.6C2296.07,793.467 2297,795.867 2297,798.8L2297,838.4C2297,841.067 2296.07,843.333 2294.2,845.2C2292.33,847.067 2290.07,848 2287.4,848L2247.4,848Z" style="fill:rgb(15,15,15);fill-rule:nonzero;"></path> <g transform="matrix(0.949324,0,0,0.898649,-1093.6,85.9459)"> <path d="M2247.4,848C2244.73,848 2242.47,847.067 2240.6,845.2C2238.73,843.333 2237.8,841.067 2237.8,838.4L2237.8,798.8C2237.8,795.867 2238.73,793.467 2240.6,791.6C2242.47,789.733 2244.73,788.8 2247.4,788.8L2287.4,788.8C2290.07,788.8 2292.33,789.733 2294.2,791.6C2296.07,793.467 2297,795.867 2297,798.8L2297,838.4C2297,841.067 2296.07,843.333 2294.2,845.2C2292.33,847.067 2290.07,848 2287.4,848L2247.4,848Z" style="fill:rgb(106,163,83);fill-rule:nonzero;"></path> </g> </g> </g> <defs> <linearGradient id="_Linear1" x1="0" y1="0" x2="1" y2="0" gradientUnits="userSpaceOnUse" gradientTransform="matrix(214,0,0,214,628.25,818.275)"><stop offset="0" style="stop-color:rgb(106,163,83);stop-opacity:1"></stop><stop offset="0.45" style="stop-color:rgb(187,204,121);stop-opacity:1"></stop><stop offset="0.74" style="stop-color:rgb(255,232,170);stop-opacity:1"></stop><stop offset="1" style="stop-color:rgb(214,85,85);stop-opacity:1"></stop></linearGradient> </defs> </svg> 