<?xml version="1.0" encoding="UTF-8" standalone="no"?>
<!DOCTYPE svg PUBLIC "-//W3C//DTD SVG 1.1//EN" "http://www.w3.org/Graphics/SVG/1.1/DTD/svg11.dtd">
<svg width="100%" height="100%" viewBox="0 0 2488 351" version="1.1" xmlns="http://www.w3.org/2000/svg" xmlns:xlink="http://www.w3.org/1999/xlink" xml:space="preserve" xmlns:serif="http://www.serif.com/" style="fill-rule:evenodd;clip-rule:evenodd;stroke-linejoin:round;stroke-miterlimit:2;">
    <g transform="matrix(1,0,0,1,-863.35,-895.916)">
        <g transform="matrix(1,0,0,1,816.65,569.725)">
            <g transform="matrix(1,0,0,1,-209.5,-39.25)">
                <path d="M262.8,650C260.8,650 259.2,649.4 258,648.2C256.8,647 256.2,645.4 256.2,643.4L256.2,446.9C256.2,444.7 256.8,443 258,441.8C259.2,440.6 260.8,440 262.8,440L326.7,440C347.9,440 364.5,443.1 376.5,449.3C388.5,455.5 397.05,464.65 402.15,476.75C407.25,488.85 409.9,503.6 410.1,521C410.3,530 410.4,537.95 410.4,544.85C410.4,551.75 410.3,559.7 410.1,568.7C409.7,587.1 407,602.3 402,614.3C397,626.3 388.6,635.25 376.8,641.15C365,647.05 348.8,650 328.2,650L262.8,650ZM275.1,632L326.7,632C342.7,632 355.35,629.85 364.65,625.55C373.95,621.25 380.65,614.35 384.75,604.85C388.85,595.35 391,582.8 391.2,567.2C391.4,561.2 391.5,555.95 391.5,551.45L391.5,538.1C391.5,533.7 391.4,528.5 391.2,522.5C390.8,500.5 385.7,484.25 375.9,473.75C366.1,463.25 349.2,458 325.2,458L275.1,458L275.1,632Z" style="fill:rgb(15,15,15);fill-rule:nonzero;"/>
                <path d="M462,650C460,650 458.4,649.4 457.2,648.2C456,647 455.4,645.4 455.4,643.4L455.4,500.6C455.4,498.6 456,497 457.2,495.8C458.4,494.6 460,494 462,494L467.1,494C469.1,494 470.7,494.6 471.9,495.8C473.1,497 473.7,498.6 473.7,500.6L473.7,643.4C473.7,645.4 473.1,647 471.9,648.2C470.7,649.4 469.1,650 467.1,650L462,650ZM458.7,461.9C456.7,461.9 455.1,461.3 453.9,460.1C452.7,458.9 452.1,457.3 452.1,455.3L452.1,443.9C452.1,441.9 452.7,440.25 453.9,438.95C455.1,437.65 456.7,437 458.7,437L470.1,437C472.1,437 473.75,437.65 475.05,438.95C476.35,440.25 477,441.9 477,443.9L477,455.3C477,457.3 476.35,458.9 475.05,460.1C473.75,461.3 472.1,461.9 470.1,461.9L458.7,461.9Z" style="fill:rgb(15,15,15);fill-rule:nonzero;"/>
                <path d="M580.5,716C567.7,716 557.25,714.3 549.15,710.9C541.05,707.5 534.75,703.35 530.25,698.45C525.75,693.55 522.6,688.65 520.8,683.75C519,678.85 518,674.9 517.8,671.9C517.6,669.9 518.2,668.25 519.6,666.95C521,665.65 522.6,665 524.4,665L528.6,665C530.2,665 531.6,665.35 532.8,666.05C534,666.75 535,668.5 535.8,671.3C537,674.5 538.95,678.25 541.65,682.55C544.35,686.85 548.65,690.6 554.55,693.8C560.45,697 568.6,698.6 579,698.6C590,698.6 599.2,697.2 606.6,694.4C614,691.6 619.65,686.65 623.55,679.55C627.45,672.45 629.4,662.6 629.4,650L629.4,629.3C624.4,636.1 617.85,641.75 609.75,646.25C601.65,650.75 591.4,653 579,653C567.4,653 557.55,650.9 549.45,646.7C541.35,642.5 534.8,636.9 529.8,629.9C524.8,622.9 521.1,615.1 518.7,606.5C516.3,597.9 515,589.2 514.8,580.4C514.6,574.8 514.6,569.2 514.8,563.6C515,554.8 516.3,546.1 518.7,537.5C521.1,528.9 524.8,521.1 529.8,514.1C534.8,507.1 541.35,501.5 549.45,497.3C557.55,493.1 567.4,491 579,491C591.4,491 601.65,493.3 609.75,497.9C617.85,502.5 624.4,508.1 629.4,514.7L629.4,500.9C629.4,498.9 630,497.25 631.2,495.95C632.4,494.65 634,494 636,494L640.8,494C642.8,494 644.45,494.65 645.75,495.95C647.05,497.25 647.7,498.9 647.7,500.9L647.7,647C647.7,659.8 645.8,671.4 642,681.8C638.2,692.2 631.45,700.5 621.75,706.7C612.05,712.9 598.3,716 580.5,716ZM580.8,635.6C592.2,635.6 601.4,632.9 608.4,627.5C615.4,622.1 620.55,615.35 623.85,607.25C627.15,599.15 629,591 629.4,582.8C629.6,579.8 629.7,576.2 629.7,572C629.7,567.8 629.6,564.2 629.4,561.2C629,553 627.15,544.85 623.85,536.75C620.55,528.65 615.4,521.9 608.4,516.5C601.4,511.1 592.2,508.4 580.8,508.4C569.2,508.4 559.95,511 553.05,516.2C546.15,521.4 541.2,528.2 538.2,536.6C535.2,545 533.5,554 533.1,563.6C532.9,569.2 532.9,574.8 533.1,580.4C533.5,590 535.2,599 538.2,607.4C541.2,615.8 546.15,622.6 553.05,627.8C559.95,633 569.2,635.6 580.8,635.6Z" style="fill:rgb(15,15,15);fill-rule:nonzero;"/>
                <path d="M703.2,650C701.2,650 699.6,649.4 698.4,648.2C697.2,647 696.6,645.4 696.6,643.4L696.6,500.6C696.6,498.6 697.2,497 698.4,495.8C699.6,494.6 701.2,494 703.2,494L708.3,494C710.3,494 711.9,494.6 713.1,495.8C714.3,497 714.9,498.6 714.9,500.6L714.9,643.4C714.9,645.4 714.3,647 713.1,648.2C711.9,649.4 710.3,650 708.3,650L703.2,650ZM699.9,461.9C697.9,461.9 696.3,461.3 695.1,460.1C693.9,458.9 693.3,457.3 693.3,455.3L693.3,443.9C693.3,441.9 693.9,440.25 695.1,438.95C696.3,437.65 697.9,437 699.9,437L711.3,437C713.3,437 714.95,437.65 716.25,438.95C717.55,440.25 718.2,441.9 718.2,443.9L718.2,455.3C718.2,457.3 717.55,458.9 716.25,460.1C714.95,461.3 713.3,461.9 711.3,461.9L699.9,461.9Z" style="fill:rgb(15,15,15);fill-rule:nonzero;"/>
            </g>
            <g transform="matrix(-2.15421,2.63814e-16,-1.39164e-16,-1.13636,1865.05,1269.37)">
                <path d="M844,811.74C844,809.676 843.116,808 842.027,808L631.973,808C630.884,808 630,809.676 630,811.74L630,826.26C630,828.324 630.884,830 631.973,830L842.027,830C843.116,830 844,828.324 844,826.26L844,811.74Z" style="fill:url(#_Linear1);"/>
            </g>
        </g>
        <g transform="matrix(28.1216,0,0,1,-39305.1,1)">
            <path d="M1449.45,1176C1449.36,1176 1449.28,1175.07 1449.21,1173.2C1449.14,1171.33 1449.11,1169.07 1449.11,1166.4L1449.11,906C1449.11,903.067 1449.14,900.667 1449.21,898.8C1449.28,896.933 1449.36,896 1449.45,896L1453.26,896C1454,896 1454.65,899.267 1455.2,905.8C1455.75,912.333 1456.17,922.2 1456.48,935.4C1456.78,948.6 1456.93,965.067 1456.93,984.8C1456.93,1004.8 1456.78,1021.27 1456.48,1034.2C1456.17,1047.13 1455.75,1056.8 1455.2,1063.2C1454.65,1069.6 1454,1072.8 1453.26,1072.8L1451.14,1072.8L1451.14,1166.4C1451.14,1169.07 1451.11,1171.33 1451.05,1173.2C1450.99,1175.07 1450.91,1176 1450.8,1176L1449.45,1176ZM1451.12,1028.4L1453.19,1028.4C1453.74,1028.4 1454.16,1024.73 1454.46,1017.4C1454.75,1010.07 1454.9,999.2 1454.9,984.8C1454.9,971.467 1454.76,960.733 1454.49,952.6C1454.21,944.467 1453.78,940.4 1453.19,940.4L1451.12,940.4L1451.12,1028.4Z" style="fill:rgb(15,15,15);fill-rule:nonzero;"/>
            <path d="M1457.87,1176C1457.8,1176 1457.73,1175.2 1457.66,1173.6C1457.6,1172 1457.57,1170 1457.57,1167.6C1457.57,1166.53 1457.58,1165.33 1457.6,1164L1461.03,906C1461.06,903.333 1461.11,901 1461.19,899C1461.27,897 1461.38,896 1461.53,896L1463.08,896C1463.22,896 1463.33,897 1463.4,899C1463.48,901 1463.54,903.333 1463.58,906L1467,1164C1467.01,1165.33 1467.02,1166.53 1467.02,1167.6C1467.02,1170 1466.99,1172 1466.93,1173.6C1466.88,1175.2 1466.81,1176 1466.73,1176L1465.5,1176C1465.36,1176 1465.27,1175.13 1465.2,1173.4C1465.14,1171.67 1465.1,1170 1465.08,1168.4L1464.41,1119.6L1460.19,1119.6L1459.52,1168.4C1459.5,1170 1459.46,1171.67 1459.4,1173.4C1459.34,1175.13 1459.24,1176 1459.11,1176L1457.87,1176ZM1460.69,1073.6L1463.92,1073.6L1462.3,950L1460.69,1073.6Z" style="fill:rgb(15,15,15);fill-rule:nonzero;"/>
            <path d="M1468.68,1176C1468.59,1176 1468.51,1175.07 1468.44,1173.2C1468.37,1171.33 1468.34,1169.07 1468.34,1166.4L1468.34,906C1468.34,903.067 1468.37,900.667 1468.44,898.8C1468.51,896.933 1468.59,896 1468.68,896L1472.37,896C1473.51,896 1474.42,903.467 1475.08,918.4C1475.75,933.333 1476.08,955.067 1476.08,983.6C1476.08,1003.33 1475.9,1019.73 1475.56,1032.8C1475.21,1045.87 1474.75,1055.33 1474.17,1061.2L1476.25,1163.2C1476.28,1164.8 1476.29,1166.27 1476.29,1167.6C1476.29,1170 1476.26,1172 1476.2,1173.6C1476.14,1175.2 1476.07,1176 1475.99,1176L1474.7,1176C1474.54,1176 1474.41,1174.8 1474.33,1172.4C1474.24,1170 1474.18,1167.6 1474.13,1165.2L1472.29,1070.4L1470.32,1070.4L1470.32,1166.4C1470.32,1169.07 1470.29,1171.33 1470.23,1173.2C1470.16,1175.07 1470.08,1176 1469.98,1176L1468.68,1176ZM1470.32,1025.2L1472.32,1025.2C1472.9,1025.2 1473.33,1021.53 1473.62,1014.2C1473.9,1006.87 1474.04,996.533 1474.04,983.2C1474.04,969.867 1473.9,959.4 1473.62,951.8C1473.35,944.2 1472.91,940.4 1472.32,940.4L1470.32,940.4L1470.32,1025.2Z" style="fill:rgb(15,15,15);fill-rule:nonzero;"/>
            <g transform="matrix(0.0337578,0,0,0.898649,1404.56,423.671)">
                <path d="M2247.4,848C2244.73,848 2242.47,847.067 2240.6,845.2C2238.73,843.333 2237.8,841.067 2237.8,838.4L2237.8,798.8C2237.8,795.867 2238.73,793.467 2240.6,791.6C2242.47,789.733 2244.73,788.8 2247.4,788.8L2287.4,788.8C2290.07,788.8 2292.33,789.733 2294.2,791.6C2296.07,793.467 2297,795.867 2297,798.8L2297,838.4C2297,841.067 2296.07,843.333 2294.2,845.2C2292.33,847.067 2290.07,848 2287.4,848L2247.4,848Z" style="fill:rgb(106,163,83);fill-rule:nonzero;"/>
            </g>
            <path d="M1480.44,1111C1480.35,1111 1480.27,1110.07 1480.2,1108.2C1480.14,1106.33 1480.1,1104.07 1480.1,1101.4L1480.1,945.2L1477.47,945.2C1477.38,945.2 1477.3,944.267 1477.23,942.4C1477.16,940.533 1477.13,938.267 1477.13,935.6L1477.13,906C1477.13,903.067 1477.16,900.667 1477.23,898.8C1477.3,896.933 1477.38,896 1477.47,896L1484.73,896C1484.83,896 1484.92,896.933 1484.98,898.8C1485.05,900.667 1485.08,903.067 1485.08,906L1485.08,935.6C1485.08,938.267 1485.05,940.533 1484.98,942.4C1484.92,944.267 1484.83,945.2 1484.73,945.2L1482.11,945.2L1482.11,1101.4C1482.11,1104.07 1482.08,1106.33 1482.01,1108.2C1481.94,1110.07 1481.86,1111 1481.75,1111L1480.44,1111Z" style="fill:rgb(15,15,15);fill-rule:nonzero;"/>
            <path d="M1486.86,1176C1486.77,1176 1486.68,1175.07 1486.62,1173.2C1486.55,1171.33 1486.52,1169.07 1486.52,1166.4L1486.52,906C1486.52,903.067 1486.55,900.667 1486.62,898.8C1486.68,896.933 1486.77,896 1486.86,896L1487.95,896C1488.09,896 1488.18,896.867 1488.25,898.6C1488.31,900.333 1488.35,901.6 1488.37,902.4L1492.46,1081.6L1492.46,906C1492.46,903.067 1492.5,900.667 1492.56,898.8C1492.62,896.933 1492.7,896 1492.81,896L1494,896C1494.11,896 1494.19,896.933 1494.26,898.8C1494.32,900.667 1494.36,903.067 1494.36,906L1494.36,1166C1494.36,1168.93 1494.32,1171.33 1494.26,1173.2C1494.19,1175.07 1494.11,1176 1494.01,1176L1492.9,1176C1492.77,1176 1492.68,1175.07 1492.62,1173.2C1492.56,1171.33 1492.52,1170.13 1492.49,1169.6L1488.41,994.4L1488.41,1166.4C1488.41,1169.07 1488.38,1171.33 1488.31,1173.2C1488.24,1175.07 1488.16,1176 1488.06,1176L1486.86,1176Z" style="fill:rgb(15,15,15);fill-rule:nonzero;"/>
            <path d="M1496.92,1176C1496.82,1176 1496.74,1175.07 1496.67,1173.2C1496.61,1171.33 1496.58,1169.07 1496.58,1166.4L1496.58,906C1496.58,903.067 1496.61,900.667 1496.67,898.8C1496.74,896.933 1496.82,896 1496.92,896L1503.17,896C1503.28,896 1503.36,896.933 1503.43,898.8C1503.5,900.667 1503.53,903.067 1503.53,906L1503.53,932.4C1503.53,935.067 1503.5,937.333 1503.43,939.2C1503.36,941.067 1503.28,942 1503.17,942L1498.5,942L1498.5,1012.8L1502.86,1012.8C1502.97,1012.8 1503.05,1013.67 1503.12,1015.4C1503.18,1017.13 1503.22,1019.47 1503.22,1022.4L1503.22,1047.2C1503.22,1050.13 1503.18,1052.47 1503.12,1054.2C1503.05,1055.93 1502.97,1056.8 1502.86,1056.8L1498.5,1056.8L1498.5,1130L1503.29,1130C1503.39,1130 1503.48,1130.93 1503.54,1132.8C1503.61,1134.67 1503.64,1137.07 1503.64,1140L1503.64,1166.4C1503.64,1169.07 1503.61,1171.33 1503.54,1173.2C1503.48,1175.07 1503.39,1176 1503.29,1176L1496.92,1176Z" style="fill:rgb(15,15,15);fill-rule:nonzero;"/>
            <path d="M1505.76,1176C1505.67,1176 1505.59,1175.07 1505.52,1173.2C1505.45,1171.33 1505.42,1169.07 1505.42,1166.4L1505.42,906C1505.42,903.067 1505.45,900.667 1505.52,898.8C1505.59,896.933 1505.67,896 1505.76,896L1509.45,896C1510.6,896 1511.5,903.467 1512.16,918.4C1512.83,933.333 1513.16,955.067 1513.16,983.6C1513.16,1003.33 1512.99,1019.73 1512.64,1032.8C1512.3,1045.87 1511.83,1055.33 1511.25,1061.2L1513.33,1163.2C1513.36,1164.8 1513.37,1166.27 1513.37,1167.6C1513.37,1170 1513.34,1172 1513.28,1173.6C1513.22,1175.2 1513.15,1176 1513.07,1176L1511.78,1176C1511.62,1176 1511.5,1174.8 1511.41,1172.4C1511.33,1170 1511.26,1167.6 1511.21,1165.2L1509.38,1070.4L1507.4,1070.4L1507.4,1166.4C1507.4,1169.07 1507.37,1171.33 1507.31,1173.2C1507.25,1175.07 1507.16,1176 1507.06,1176L1505.76,1176ZM1507.4,1025.2L1509.4,1025.2C1509.98,1025.2 1510.41,1021.53 1510.7,1014.2C1510.98,1006.87 1511.13,996.533 1511.13,983.2C1511.13,969.867 1510.99,959.4 1510.71,951.8C1510.43,944.2 1509.99,940.4 1509.4,940.4L1507.4,940.4L1507.4,1025.2Z" style="fill:rgb(15,15,15);fill-rule:nonzero;"/>
            <path d="M1515.08,1176C1514.99,1176 1514.9,1175.07 1514.84,1173.2C1514.77,1171.33 1514.74,1169.07 1514.74,1166.4L1514.74,1126.8C1514.74,1123.87 1514.77,1121.47 1514.84,1119.6C1514.9,1117.73 1514.99,1116.8 1515.08,1116.8L1516.5,1116.8C1516.6,1116.8 1516.68,1117.73 1516.74,1119.6C1516.81,1121.47 1516.84,1123.87 1516.84,1126.8L1516.84,1166.4C1516.84,1169.07 1516.81,1171.33 1516.74,1173.2C1516.68,1175.07 1516.6,1176 1516.5,1176L1515.08,1176Z" style="fill:rgb(15,15,15);fill-rule:nonzero;"/>
        </g>
    </g>
    <defs>
        <linearGradient id="_Linear1" x1="0" y1="0" x2="1" y2="0" gradientUnits="userSpaceOnUse" gradientTransform="matrix(214,0,0,214,628.25,818.275)"><stop offset="0" style="stop-color:rgb(106,163,83);stop-opacity:1"/><stop offset="0.45" style="stop-color:rgb(187,204,121);stop-opacity:1"/><stop offset="0.74" style="stop-color:rgb(255,232,170);stop-opacity:1"/><stop offset="1" style="stop-color:rgb(214,85,85);stop-opacity:1"/></linearGradient>
    </defs>
</svg>
