<?xml version="1.0" standalone="no"?>
<!DOCTYPE svg PUBLIC "-//W3C//DTD SVG 20010904//EN"
 "http://www.w3.org/TR/2001/REC-SVG-20010904/DTD/svg10.dtd">
<svg version="1.0" xmlns="http://www.w3.org/2000/svg"
 width="1000.000000pt" height="1000.000000pt" viewBox="0 0 1000.000000 1000.000000"
 preserveAspectRatio="xMidYMid meet">
<metadata>
Created by potrace 1.14, written by Peter Selinger 2001-2017
</metadata>
<g transform="translate(0.000000,1000.000000) scale(0.100000,-0.100000)"
fill="#000000" stroke="none">
<path d="M0 5000 l0 -5000 5000 0 5000 0 0 5000 0 5000 -5000 0 -5000 0 0
-5000z m3690 2610 l0 -240 -500 0 -500 0 0 -2380 0 -2380 500 0 500 0 0 -235
0 -235 -795 0 -795 0 0 2848 c0 1567 3 2852 7 2855 3 4 361 7 795 7 l788 0 0
-240z m4210 -2615 l0 -2855 -795 0 -795 0 0 240 0 240 500 0 500 0 0 2375 0
2375 -500 0 -500 0 0 240 0 240 795 0 795 0 0 -2855z m-3840 1530 l0 -135
-250 0 -250 0 0 -1395 0 -1395 250 0 250 0 0 -135 0 -135 -455 0 -455 0 0
1665 0 1665 455 0 455 0 0 -135z m2790 -1535 l0 -1670 -457 2 -458 3 -3 138
-3 137 256 0 255 0 0 1395 0 1395 -255 0 -255 0 0 135 0 135 460 0 460 0 0
-1670z m-2360 735 l0 -65 -110 0 -110 0 0 -670 0 -670 110 0 110 0 0 -60 0
-60 -215 0 -215 0 0 795 0 795 215 0 215 0 0 -65z m1450 -735 l0 -800 -217 2
-218 3 0 65 0 65 113 3 112 3 0 664 0 665 -115 0 -115 0 0 65 0 65 220 0 220
0 0 -800z"/>
</g>
</svg>
