<?xml version="1.0" encoding="UTF-8" standalone="no"?>
<!DOCTYPE svg PUBLIC "-//W3C//DTD SVG 1.1//EN" "http://www.w3.org/Graphics/SVG/1.1/DTD/svg11.dtd">
<svg width="175px" height="48px" viewBox="0 0 175 48" version="1.1" xmlns="http://www.w3.org/2000/svg" xmlns:xlink="http://www.w3.org/1999/xlink" xml:space="preserve" xmlns:serif="http://www.serif.com/" style="fill-rule:evenodd;clip-rule:evenodd;stroke-linejoin:round;stroke-miterlimit:2;">
    <g transform="matrix(1,0,0,1,0,4.4294)">
        <path d="M174.005,18.911L171.136,18.911L171.136,22.946C171.136,24.016 171.614,24.475 172.781,24.475C173.336,24.475 173.699,24.36 174.063,24.36C174.713,24.36 174.981,24.609 174.981,25.125L174.981,25.661C174.981,26.196 174.732,26.598 174.197,26.693C170.83,27.496 168.152,26.636 168.152,22.946L168.152,15.068C168.152,14.437 168.496,14.092 169.127,14.092L170.18,14.092C170.811,14.092 171.155,14.437 171.155,15.068L171.155,16.502L174.024,16.502C174.656,16.502 175,16.846 175,17.477L175,17.936C174.981,18.567 174.637,18.911 174.005,18.911Z" style="fill:rgb(209,228,45);fill-rule:nonzero;"/>
    </g>
    <g transform="matrix(1,0,0,1,0,4.4294)">
        <path d="M157.306,25.45L157.306,25.164C157.306,24.514 157.689,24.208 158.358,24.322C160.749,24.781 163.198,24.934 163.198,23.787C163.198,23.347 162.872,23.099 162.184,22.907L160.022,22.353C158.014,21.837 157.153,20.842 157.153,19.446C157.153,16.559 160.883,15.947 164.479,16.846C165.034,16.98 165.283,17.343 165.283,17.898L165.283,18.146C165.283,18.815 164.9,19.102 164.231,18.949C162.241,18.509 159.869,18.414 159.869,19.351C159.869,19.695 160.137,19.924 160.596,20.039L162.911,20.632C164.919,21.148 165.895,22.123 165.895,23.691C165.895,26.865 161.744,27.458 158.071,26.483C157.574,26.368 157.306,26.005 157.306,25.45Z" style="fill:rgb(209,228,45);fill-rule:nonzero;"/>
    </g>
    <g transform="matrix(1,0,0,1,0,4.4294)">
        <path d="M144.604,21.722C144.604,18.376 146.441,16.463 149.807,16.463C153.174,16.463 155.011,18.376 155.011,21.722C155.011,25.049 153.174,26.961 149.807,26.961C146.441,26.961 144.604,25.049 144.604,21.722ZM152.122,21.722C152.122,19.733 151.357,18.873 149.807,18.873C148.258,18.873 147.493,19.714 147.493,21.722C147.493,23.691 148.258,24.552 149.807,24.552C151.357,24.552 152.122,23.691 152.122,21.722Z" style="fill:rgb(209,228,45);fill-rule:nonzero;"/>
    </g>
    <g transform="matrix(1,0,0,1,0,4.4294)">
        <path d="M142.405,21.76L142.405,25.986C142.405,26.617 142.06,26.961 141.429,26.961L140.434,26.961C139.803,26.961 139.459,26.617 139.459,25.986L139.459,21.76C139.459,19.523 138.636,18.834 136.59,18.834C136.131,18.834 135.614,18.873 135.021,18.911L135.021,25.986C135.021,26.617 134.677,26.961 134.045,26.961L133.051,26.961C132.42,26.961 132.075,26.617 132.075,25.986L132.075,13.136C132.075,12.505 132.42,12.161 133.051,12.161L134.045,12.161C134.677,12.161 135.021,12.505 135.021,13.136L135.021,16.444C135.538,16.406 136.035,16.387 136.494,16.387C140.205,16.387 142.405,17.725 142.405,21.76Z" style="fill:rgb(209,228,45);fill-rule:nonzero;"/>
    </g>
    <g transform="matrix(1,0,0,1,0,4.4294)">
        <path d="M127.408,12.161L128.46,12.161C129.091,12.161 129.435,12.505 129.435,13.136L129.435,25.986C129.435,26.617 129.091,26.961 128.46,26.961L127.408,26.961C126.777,26.961 126.432,26.617 126.432,25.986L126.432,13.136C126.451,12.524 126.796,12.161 127.408,12.161Z" style="fill:rgb(209,228,45);fill-rule:nonzero;"/>
    </g>
    <g transform="matrix(1,0,0,1,0,4.4294)">
        <path d="M123.965,20.555L123.965,23.94C123.965,26.139 122.951,26.98 120.694,26.98L118.283,26.98C115.701,26.98 114.133,26.292 114.133,23.806C114.133,21.301 115.72,20.632 118.283,20.632L121.019,20.632L121.019,20.555C121.019,19.389 120.101,18.892 118.551,18.892C117.786,18.892 116.811,19.026 115.816,19.217C115.146,19.351 114.745,19.045 114.745,18.356L114.745,17.974C114.745,17.4 115.07,17.018 115.758,16.865C116.906,16.616 118.035,16.502 118.972,16.502C121.841,16.483 123.965,17.706 123.965,20.555ZM121.019,23.787L121.019,22.716L118.436,22.716C117.155,22.716 116.887,23.003 116.887,23.787C116.887,24.552 117.155,24.858 118.417,24.858L119.967,24.858C120.866,24.858 121.019,24.494 121.019,23.787Z" style="fill:rgb(209,228,45);fill-rule:nonzero;"/>
    </g>
    <g transform="matrix(1,0,0,1,0,4.4294)">
        <path d="M111.837,21.378L111.837,25.986C111.837,26.617 111.493,26.961 110.861,26.961L109.867,26.961C109.236,26.961 108.891,26.617 108.891,25.986L108.891,21.339C108.891,19.485 108.222,18.968 106.634,18.968C105.046,18.968 104.377,19.485 104.377,21.339L104.377,25.986C104.377,26.617 104.033,26.961 103.401,26.961L102.407,26.961C101.775,26.961 101.431,26.617 101.431,25.986L101.431,21.378C101.431,17.572 103.344,16.483 106.634,16.483C109.924,16.483 111.837,17.592 111.837,21.378Z" style="fill:rgb(209,228,45);fill-rule:nonzero;"/>
    </g>
    <g transform="matrix(1,0,0,1,0,4.4294)">
        <path d="M99.767,17.439L99.767,18.051C99.767,18.682 99.403,19.026 98.696,19.026C96.477,19.064 96.381,19.255 96.381,20.039L96.381,25.986C96.381,26.617 96.037,26.961 95.406,26.961L94.353,26.961C93.722,26.961 93.378,26.617 93.378,25.986L93.378,19.619C93.378,17.19 94.239,16.54 98.715,16.463C99.403,16.463 99.767,16.808 99.767,17.439Z" style="fill:rgb(209,228,45);fill-rule:nonzero;"/>
    </g>
    <g transform="matrix(1,0,0,1,0,4.4294)">
        <path d="M88.749,22.659L84.387,23.118C84.751,24.265 85.688,24.686 87.065,24.686C87.735,24.686 88.538,24.571 89.418,24.36C90.088,24.208 90.489,24.494 90.489,25.164L90.489,25.47C90.489,26.024 90.241,26.387 89.686,26.521C88.577,26.827 87.524,26.98 86.549,26.98C83.431,26.98 81.327,25.278 81.327,21.741C81.327,18.395 83.106,16.483 86.568,16.483C89.476,16.483 91.197,17.84 91.197,20.422C91.216,21.856 90.604,22.468 88.749,22.659ZM88.5,20.135C88.5,19.16 87.907,18.624 86.587,18.624C85.153,18.624 84.387,19.274 84.234,21.014L87.792,20.651C88.385,20.613 88.5,20.498 88.5,20.135Z" style="fill:rgb(209,228,45);fill-rule:nonzero;"/>
    </g>
    <g transform="matrix(1,0,0,1,0,4.4294)">
        <path d="M67.749,22.659L63.387,23.118C63.751,24.265 64.688,24.686 66.065,24.686C66.735,24.686 67.538,24.571 68.418,24.36C69.088,24.208 69.489,24.494 69.489,25.164L69.489,25.47C69.489,26.024 69.241,26.387 68.686,26.521C67.577,26.827 66.524,26.98 65.549,26.98C62.431,26.98 60.327,25.278 60.327,21.741C60.327,18.395 62.106,16.483 65.568,16.483C68.476,16.483 70.197,17.84 70.197,20.422C70.216,21.856 69.604,22.468 67.749,22.659ZM67.5,20.135C67.5,19.16 66.907,18.624 65.587,18.624C64.153,18.624 63.387,19.274 63.234,21.014L66.792,20.651C67.385,20.613 67.5,20.498 67.5,20.135Z" style="fill:rgb(209,228,45);fill-rule:nonzero;"/>
    </g>
    <g transform="matrix(1,0,0,1,0,4.4294)">
        <path d="M78.381,18.911L75.512,18.911L75.512,22.946C75.512,24.016 75.99,24.475 77.157,24.475C77.711,24.475 78.075,24.36 78.438,24.36C79.089,24.36 79.357,24.609 79.357,25.125L79.357,25.661C79.357,26.196 79.108,26.598 78.572,26.693C75.206,27.496 72.528,26.636 72.528,22.946L72.528,15.068C72.528,14.437 72.872,14.092 73.503,14.092L74.555,14.092C75.186,14.092 75.531,14.437 75.531,15.068L75.531,16.502L78.4,16.502C79.031,16.502 79.376,16.846 79.376,17.477L79.376,17.936C79.357,18.567 79.012,18.911 78.381,18.911Z" style="fill:rgb(209,228,45);fill-rule:nonzero;"/>
    </g>
    <path d="M20.915,24.037C20.915,25.23 19.942,26.203 18.748,26.203C17.555,26.203 16.581,25.23 16.581,24.037C16.581,22.953 17.39,22.054 18.418,21.907C17.334,21.301 16.214,20.97 15.113,21.319C13.478,21.833 12.303,23.449 12.303,25.157L12.285,25.175L12.303,25.175C12.303,26.901 13.478,28.517 15.113,29.013C17.022,29.601 18.914,28.26 20.695,26.81C21.392,26.24 22.017,25.708 22.586,25.157C22.072,24.661 21.503,24.165 20.878,23.651C20.897,23.78 20.915,23.908 20.915,24.037Z" style="fill:white;fill-rule:nonzero;"/>
    <path d="M32.888,21.301C31.767,20.952 30.666,21.282 29.582,21.888C30.629,22.035 31.419,22.935 31.419,24.018C31.419,25.212 30.445,26.185 29.252,26.185C28.058,26.185 27.085,25.212 27.085,24.018C27.085,23.89 27.103,23.761 27.122,23.633C26.497,24.147 25.928,24.643 25.414,25.139C25.983,25.689 26.608,26.222 27.305,26.791C29.087,28.223 30.978,29.582 32.888,28.995C34.522,28.481 35.697,26.865 35.697,25.157L35.715,25.157L35.697,25.157C35.697,23.431 34.522,21.815 32.888,21.301Z" style="fill:white;fill-rule:nonzero;"/>
    <path d="M48,24C48,10.742 37.258,0 24,0C10.742,0 0,10.742 0,24C0,30.647 2.699,36.652 7.07,41.004L7.161,40.508C7.731,37.625 8.502,34.926 9.438,32.429C7.565,31.804 5.637,31.272 3.709,30.849L2.92,30.666C2.828,30.647 2.791,30.555 2.828,30.482L3.122,29.729C4.113,27.158 5.399,24.569 6.904,22.035C7.235,21.484 7.547,20.97 7.859,20.493C8.208,19.924 8.557,19.409 8.888,18.914C8.539,17.885 8.318,16.784 8.245,15.645C8.226,15.351 8.208,15.076 8.208,14.782C8.208,14.525 8.226,14.249 8.245,13.992C8.428,11.073 9.585,8.465 11.33,6.537C12.175,5.619 12.725,5.123 13.864,5.986C14.837,6.721 15.792,7.657 16.692,8.759C16.967,9.09 17.224,9.457 17.481,9.824C17.555,9.934 17.628,10.044 17.702,10.155C17.922,10.044 18.124,9.934 18.142,9.934C18.803,9.604 19.483,9.328 20.181,9.126C20.291,9.09 20.419,9.053 20.53,9.034C21.65,8.722 22.806,8.557 23.982,8.539C25.139,8.557 26.314,8.741 27.434,9.034C27.544,9.071 27.673,9.108 27.783,9.126C28.481,9.328 29.16,9.604 29.821,9.934C29.839,9.953 30.041,10.044 30.262,10.155C30.335,10.044 30.409,9.934 30.482,9.824C30.739,9.457 31.015,9.108 31.272,8.759C32.153,7.657 33.126,6.721 34.1,5.986C35.22,5.123 35.789,5.619 36.634,6.537C38.396,8.465 39.535,11.073 39.718,13.992C39.737,14.249 39.755,14.507 39.755,14.782C39.755,15.076 39.737,15.37 39.718,15.645C39.645,16.784 39.425,17.885 39.076,18.914C39.406,19.409 39.755,19.942 40.104,20.493C40.416,20.988 40.728,21.503 41.059,22.035C42.583,24.569 43.85,27.158 44.842,29.729L45.135,30.482C45.172,30.574 45.117,30.647 45.044,30.666L44.254,30.849C42.326,31.29 40.398,31.823 38.525,32.429C39.461,34.926 40.233,37.625 40.802,40.508L40.894,41.004C45.301,36.67 48,30.647 48,24Z" style="fill:rgb(209,228,45);fill-rule:nonzero;"/>
    <path d="M39.957,28.352C39.865,28.26 39.902,28.187 40.031,28.187L42.363,28.297L42.436,28.297C41.647,26.516 40.728,24.716 39.682,22.953C39.314,22.329 38.966,21.76 38.617,21.209C38.525,21.062 38.433,20.915 38.341,20.787C38.268,20.658 38.176,20.53 38.103,20.401L38.084,20.383C38.011,20.272 37.937,20.162 37.864,20.034C37.845,19.997 37.809,19.96 37.79,19.924C37.735,19.832 37.68,19.758 37.625,19.666C37.533,19.538 37.46,19.409 37.368,19.299C37.295,19.189 37.221,19.097 37.148,18.987C35.073,16.049 32.465,13.074 29.178,11.44C28.572,11.146 27.948,10.889 27.324,10.687C27.287,10.761 27.25,10.834 27.214,10.907C27.158,11.036 27.085,11.146 27.03,11.275C26.993,11.33 26.956,11.385 26.938,11.458C26.865,11.587 26.791,11.715 26.718,11.844C26.681,11.917 26.626,11.991 26.589,12.046C26.516,12.156 26.442,12.266 26.369,12.395C26.314,12.468 26.277,12.542 26.222,12.615C26.148,12.725 26.075,12.836 26.002,12.927C25.946,13.001 25.891,13.056 25.855,13.129C25.781,13.24 25.689,13.331 25.616,13.442C25.561,13.497 25.506,13.57 25.469,13.625C25.377,13.735 25.285,13.846 25.194,13.937C25.157,13.992 25.102,14.048 25.065,14.084C24.918,14.231 24.771,14.378 24.624,14.525C24.624,14.525 24.092,15.039 24.073,15.039C24.055,15.039 23.523,14.525 23.523,14.525C23.376,14.378 23.229,14.231 23.082,14.084C23.027,14.029 22.99,13.992 22.953,13.937C22.862,13.827 22.77,13.735 22.678,13.625C22.623,13.57 22.568,13.497 22.531,13.442C22.439,13.331 22.366,13.24 22.292,13.129C22.237,13.056 22.182,13.001 22.145,12.927C22.072,12.817 21.999,12.725 21.925,12.615C21.87,12.542 21.833,12.468 21.778,12.395C21.705,12.285 21.631,12.175 21.558,12.046C21.521,11.973 21.466,11.899 21.429,11.844C21.356,11.715 21.282,11.587 21.209,11.458C21.172,11.403 21.135,11.348 21.117,11.275C21.044,11.146 20.988,11.036 20.933,10.907C20.897,10.834 20.86,10.761 20.823,10.687C20.199,10.889 19.575,11.128 18.969,11.44C15.682,13.074 13.074,16.049 10.999,18.987C10.926,19.097 10.852,19.189 10.779,19.299C10.687,19.428 10.614,19.538 10.522,19.666C10.467,19.758 10.412,19.832 10.357,19.924C10.338,19.96 10.301,19.997 10.283,20.034C10.21,20.144 10.136,20.254 10.063,20.383L10.044,20.401C9.971,20.53 9.879,20.658 9.806,20.787C9.714,20.934 9.622,21.08 9.53,21.209C9.181,21.76 8.832,22.329 8.465,22.953C7.419,24.716 6.5,26.497 5.711,28.297L5.784,28.297L8.116,28.187C8.245,28.187 8.282,28.26 8.19,28.352L6.647,29.894C8.098,30.28 9.549,30.721 10.963,31.198C12.909,31.859 14.8,32.612 16.618,33.457C17.224,33.732 17.812,34.026 18.399,34.32C18.914,34.577 19.446,34.889 19.942,35.183C20.713,35.642 21.521,36.119 22.329,36.432C22.935,36.652 23.523,36.78 24.129,36.78C24.735,36.78 25.34,36.67 25.928,36.432C26.736,36.119 27.544,35.642 28.315,35.183C28.811,34.889 29.344,34.577 29.858,34.32C30.445,34.026 31.033,33.732 31.639,33.457C33.457,32.612 35.348,31.859 37.295,31.198C38.709,30.721 40.159,30.28 41.61,29.894L39.957,28.352ZM28.04,16.71L29.307,16.269C29.692,16.141 30.133,16.343 30.262,16.728C30.39,17.114 30.188,17.555 29.803,17.683L28.536,18.124C28.462,18.161 28.37,18.161 28.297,18.161C27.985,18.161 27.691,17.959 27.581,17.647C27.452,17.279 27.654,16.857 28.04,16.71ZM17.738,16.747C17.867,16.361 18.308,16.141 18.693,16.288L19.96,16.728C20.346,16.857 20.566,17.298 20.419,17.683C20.309,17.995 20.015,18.197 19.703,18.197C19.63,18.197 19.538,18.179 19.464,18.161L18.197,17.72C17.812,17.555 17.591,17.132 17.738,16.747ZM26.534,32.649C26.534,32.667 26.534,32.667 26.534,32.649C26.497,32.722 26.479,32.759 26.442,32.814C26.406,32.869 26.387,32.924 26.35,32.979C26.314,33.053 26.277,33.108 26.222,33.163C26.185,33.218 26.148,33.273 26.112,33.328C26.075,33.383 26.02,33.457 25.965,33.512C25.928,33.567 25.891,33.622 25.855,33.659C25.799,33.714 25.744,33.769 25.689,33.842C25.653,33.898 25.598,33.934 25.561,33.989C25.506,34.044 25.432,34.1 25.377,34.155C25.34,34.191 25.285,34.246 25.249,34.283C25.175,34.338 25.12,34.393 25.047,34.448C24.992,34.485 24.955,34.522 24.918,34.559C24.845,34.614 24.753,34.669 24.679,34.724C24.643,34.742 24.606,34.779 24.551,34.816C24.422,34.889 24.294,34.981 24.165,35.036C24.11,35.073 24.055,35.091 24.018,35.109C23.963,35.091 23.908,35.054 23.871,35.036C23.743,34.963 23.614,34.889 23.486,34.816C23.449,34.797 23.412,34.761 23.357,34.724C23.266,34.669 23.192,34.614 23.119,34.559C23.064,34.522 23.027,34.485 22.99,34.448C22.917,34.393 22.843,34.338 22.788,34.283C22.733,34.246 22.696,34.191 22.66,34.155C22.604,34.1 22.531,34.044 22.476,33.989C22.439,33.953 22.384,33.898 22.347,33.842C22.292,33.787 22.237,33.732 22.182,33.659C22.145,33.604 22.109,33.567 22.072,33.512C22.017,33.457 21.98,33.383 21.925,33.328C21.888,33.273 21.852,33.218 21.815,33.163C21.778,33.108 21.723,33.034 21.686,32.979C21.65,32.924 21.631,32.869 21.595,32.814C21.558,32.759 21.539,32.704 21.503,32.667L21.503,32.649C21.484,32.63 21.484,32.612 21.466,32.575C21.484,32.557 21.503,32.557 21.539,32.539L21.558,32.539C21.595,32.52 21.613,32.502 21.65,32.502C21.686,32.484 21.723,32.465 21.76,32.447C21.815,32.429 21.852,32.41 21.907,32.392C21.943,32.373 21.98,32.355 22.035,32.337C22.09,32.318 22.145,32.3 22.2,32.282C22.237,32.263 22.292,32.245 22.329,32.245C22.384,32.227 22.439,32.208 22.494,32.19C22.549,32.171 22.586,32.171 22.641,32.153C22.696,32.135 22.77,32.135 22.825,32.116C22.88,32.098 22.917,32.098 22.972,32.08C23.045,32.061 23.1,32.061 23.174,32.043C23.229,32.043 23.266,32.025 23.321,32.025C23.394,32.025 23.486,32.006 23.559,32.006C23.596,32.006 23.633,32.006 23.688,31.988C23.816,31.988 23.927,31.969 24.055,31.969C24.184,31.969 24.312,31.969 24.422,31.988C24.459,31.988 24.496,31.988 24.551,32.006C24.624,32.006 24.716,32.025 24.79,32.025C24.845,32.025 24.881,32.043 24.937,32.043C25.01,32.061 25.083,32.061 25.139,32.08C25.194,32.08 25.23,32.098 25.285,32.116C25.34,32.135 25.414,32.135 25.469,32.153C25.524,32.171 25.561,32.171 25.616,32.19C25.671,32.208 25.726,32.227 25.781,32.245C25.818,32.263 25.873,32.282 25.91,32.282C25.965,32.3 26.02,32.318 26.075,32.337C26.112,32.355 26.167,32.373 26.203,32.392C26.259,32.41 26.295,32.429 26.35,32.447C26.387,32.465 26.424,32.484 26.461,32.502C26.497,32.52 26.516,32.539 26.552,32.557L26.571,32.557C26.589,32.575 26.626,32.575 26.644,32.594C26.552,32.612 26.552,32.63 26.534,32.649ZM37.699,25.157C37.699,27.764 35.972,30.133 33.475,30.904C32.943,31.07 32.428,31.143 31.933,31.143C29.49,31.143 27.397,29.454 26.057,28.352C25.304,27.746 24.624,27.158 24,26.552C23.376,27.14 22.696,27.746 21.943,28.352C20.603,29.435 18.491,31.143 16.067,31.143C15.572,31.143 15.057,31.07 14.525,30.904C12.046,30.133 10.302,27.764 10.302,25.157L10.32,25.157L10.302,25.139C10.302,22.531 12.028,20.162 14.525,19.391C17.61,18.436 20.327,20.621 21.943,21.943C22.696,22.549 23.376,23.137 24,23.743C24.624,23.155 25.304,22.549 26.057,21.943C27.673,20.64 30.409,18.436 33.475,19.391C35.972,20.162 37.699,22.531 37.699,25.157Z" style="fill:white;fill-rule:nonzero;"/>
    <path d="M28.297,18.178C28.37,18.178 28.462,18.16 28.536,18.142L29.803,17.701C30.188,17.573 30.409,17.132 30.262,16.747C30.133,16.361 29.692,16.141 29.307,16.288L28.04,16.728C27.654,16.857 27.434,17.297 27.581,17.683C27.691,17.976 27.985,18.178 28.297,18.178Z" style="fill:rgb(38,31,70);fill-rule:nonzero;"/>
    <path d="M18.197,17.701L19.464,18.142C19.538,18.178 19.63,18.178 19.703,18.178C20.015,18.178 20.309,17.977 20.419,17.664C20.548,17.279 20.346,16.838 19.96,16.71L18.693,16.269C18.308,16.141 17.867,16.343 17.738,16.728C17.591,17.132 17.812,17.554 18.197,17.701Z" style="fill:rgb(38,31,70);fill-rule:nonzero;"/>
    <path d="M26.497,32.539C26.461,32.52 26.442,32.502 26.406,32.484C26.369,32.465 26.332,32.447 26.295,32.428C26.24,32.41 26.203,32.392 26.148,32.373C26.112,32.355 26.075,32.337 26.02,32.318C25.965,32.3 25.91,32.282 25.855,32.263C25.818,32.245 25.763,32.226 25.726,32.226C25.671,32.208 25.616,32.19 25.561,32.171C25.506,32.153 25.469,32.153 25.414,32.135C25.359,32.116 25.285,32.116 25.23,32.098C25.175,32.08 25.139,32.08 25.083,32.061C25.01,32.043 24.955,32.043 24.881,32.025C24.826,32.025 24.79,32.006 24.735,32.006C24.661,32.006 24.569,31.988 24.496,31.988C24.459,31.988 24.422,31.988 24.367,31.969C24.239,31.969 24.129,31.951 24,31.951C23.872,31.951 23.743,31.951 23.633,31.969C23.596,31.969 23.559,31.969 23.504,31.988C23.431,31.988 23.339,32.006 23.266,32.006C23.21,32.006 23.174,32.025 23.119,32.025C23.045,32.043 22.972,32.043 22.917,32.061C22.862,32.061 22.825,32.08 22.77,32.098C22.715,32.116 22.641,32.116 22.586,32.135C22.531,32.153 22.494,32.153 22.439,32.171C22.384,32.19 22.329,32.208 22.274,32.226C22.237,32.245 22.182,32.263 22.145,32.263C22.09,32.282 22.035,32.3 21.98,32.318C21.943,32.337 21.888,32.355 21.852,32.373C21.797,32.392 21.76,32.41 21.705,32.428C21.668,32.447 21.631,32.465 21.595,32.484C21.558,32.502 21.539,32.52 21.503,32.52L21.484,32.52C21.466,32.539 21.429,32.539 21.411,32.557C21.429,32.575 21.429,32.594 21.448,32.63L21.448,32.649C21.466,32.704 21.503,32.759 21.539,32.796C21.576,32.851 21.595,32.906 21.631,32.961C21.668,33.034 21.705,33.09 21.76,33.145C21.797,33.2 21.833,33.255 21.87,33.31C21.907,33.365 21.962,33.438 22.017,33.494C22.054,33.549 22.09,33.604 22.127,33.64C22.182,33.696 22.237,33.751 22.292,33.824C22.329,33.879 22.384,33.916 22.421,33.971C22.476,34.026 22.549,34.081 22.604,34.136C22.641,34.173 22.696,34.228 22.733,34.265C22.806,34.32 22.862,34.375 22.935,34.43C22.99,34.467 23.027,34.503 23.064,34.54C23.137,34.595 23.229,34.65 23.302,34.705C23.339,34.742 23.376,34.761 23.431,34.797C23.559,34.871 23.688,34.963 23.816,35.018C23.872,35.054 23.927,35.073 23.963,35.091C24.018,35.073 24.073,35.036 24.11,35.018C24.239,34.944 24.367,34.871 24.496,34.797C24.533,34.779 24.569,34.742 24.624,34.705C24.698,34.65 24.79,34.595 24.863,34.54C24.918,34.503 24.955,34.467 24.992,34.43C25.065,34.375 25.139,34.32 25.194,34.265C25.249,34.228 25.285,34.173 25.322,34.136C25.377,34.081 25.451,34.026 25.506,33.971C25.542,33.934 25.598,33.879 25.634,33.824C25.689,33.769 25.744,33.714 25.799,33.64C25.836,33.585 25.873,33.549 25.91,33.494C25.965,33.438 26.002,33.365 26.057,33.31C26.093,33.255 26.13,33.2 26.167,33.145C26.203,33.09 26.259,33.016 26.295,32.961C26.332,32.906 26.35,32.851 26.387,32.796C26.424,32.741 26.442,32.685 26.479,32.649L26.479,32.63C26.497,32.612 26.497,32.594 26.516,32.557C26.552,32.575 26.516,32.557 26.497,32.539C26.497,32.557 26.497,32.539 26.497,32.539Z" style="fill:rgb(38,31,70);fill-rule:nonzero;"/>
    <path d="M33.494,19.391C30.409,18.436 27.691,20.621 26.075,21.943C25.322,22.549 24.643,23.137 24.018,23.743C23.394,23.155 22.715,22.549 21.962,21.943C20.346,20.64 17.61,18.436 14.543,19.391C12.064,20.162 10.32,22.531 10.32,25.139L10.338,25.157L10.32,25.157C10.32,27.764 12.046,30.133 14.543,30.904C15.076,31.07 15.59,31.143 16.086,31.143C18.528,31.143 20.621,29.454 21.962,28.352C22.715,27.746 23.394,27.158 24.018,26.552C24.643,27.14 25.322,27.746 26.075,28.352C27.416,29.435 29.527,31.143 31.951,31.143C32.447,31.143 32.961,31.07 33.494,30.904C35.972,30.133 37.717,27.764 37.717,25.157C37.699,22.531 35.972,20.162 33.494,19.391ZM20.695,26.791C18.914,28.223 17.022,29.582 15.113,28.995C13.478,28.481 12.303,26.865 12.303,25.157L12.285,25.157L12.303,25.139C12.303,23.412 13.478,21.797 15.113,21.301C16.233,20.952 17.334,21.282 18.418,21.888C17.371,22.035 16.581,22.935 16.581,24.018C16.581,25.212 17.555,26.185 18.748,26.185C19.942,26.185 20.915,25.212 20.915,24.018C20.915,23.89 20.897,23.761 20.878,23.633C21.503,24.147 22.072,24.643 22.586,25.139C22.017,25.689 21.392,26.24 20.695,26.791ZM35.697,25.157C35.697,26.883 34.522,28.499 32.888,28.995C30.978,29.582 29.087,28.242 27.305,26.791C26.608,26.222 25.983,25.689 25.414,25.139C25.928,24.643 26.497,24.147 27.122,23.633C27.103,23.761 27.085,23.89 27.085,24.018C27.085,25.212 28.058,26.185 29.252,26.185C30.445,26.185 31.419,25.212 31.419,24.018C31.419,22.935 30.611,22.035 29.582,21.888C30.666,21.282 31.786,20.952 32.888,21.301C34.522,21.815 35.697,23.431 35.697,25.157Z" style="fill:rgb(38,31,70);fill-rule:nonzero;"/>
    <path d="M35.256,45.209C33.2,41.61 28.94,39.131 24.018,39.149L24,39.149C19.079,39.131 14.8,41.61 12.78,45.209C16.141,46.99 19.96,48 24.018,48C28.077,48 31.896,46.99 35.256,45.209Z" style="fill:white;fill-rule:nonzero;"/>
    <path d="M45.172,30.482L44.878,29.729C43.887,27.158 42.601,24.569 41.096,22.035C40.765,21.484 40.453,20.97 40.141,20.493C39.792,19.923 39.443,19.409 39.112,18.914C39.461,17.885 39.682,16.783 39.755,15.645C39.774,15.351 39.792,15.076 39.792,14.782C39.792,14.525 39.774,14.249 39.755,13.992C39.572,11.073 38.415,8.465 36.67,6.537C35.826,5.619 35.275,5.123 34.136,5.986C33.163,6.721 32.208,7.657 31.308,8.759C31.033,9.089 30.776,9.457 30.519,9.824C30.445,9.934 30.372,10.044 30.298,10.155C30.078,10.044 29.876,9.934 29.858,9.934C29.197,9.604 28.517,9.328 27.819,9.126C27.709,9.089 27.581,9.053 27.471,9.034C26.35,8.722 25.194,8.557 24.018,8.539C22.862,8.557 21.686,8.741 20.566,9.034C20.456,9.071 20.328,9.108 20.217,9.126C19.52,9.328 18.84,9.604 18.179,9.934C18.161,9.953 17.959,10.044 17.738,10.155C17.665,10.044 17.591,9.934 17.518,9.824C17.261,9.457 16.985,9.108 16.728,8.759C15.847,7.657 14.874,6.721 13.9,5.986C12.78,5.123 12.211,5.619 11.367,6.537C9.604,8.465 8.465,11.073 8.282,13.992C8.263,14.249 8.245,14.507 8.245,14.782C8.245,15.076 8.263,15.37 8.282,15.645C8.355,16.783 8.575,17.885 8.924,18.914C8.594,19.409 8.245,19.942 7.896,20.493C7.584,20.988 7.272,21.503 6.941,22.035C5.417,24.569 4.15,27.158 3.158,29.729L2.865,30.482C2.828,30.574 2.883,30.647 2.956,30.666L3.746,30.849C5.674,31.29 7.602,31.823 9.475,32.428C8.539,34.926 7.767,37.625 7.198,40.508L7.106,41.004C8.777,42.675 10.705,44.089 12.799,45.209C14.837,41.61 19.097,39.131 24.018,39.149L24.055,39.149C28.976,39.131 33.255,41.61 35.275,45.209C37.386,44.089 39.296,42.675 40.967,41.004L40.875,40.508C40.306,37.625 39.535,34.926 38.598,32.428C40.471,31.804 42.399,31.272 44.328,30.849L45.117,30.666C45.154,30.647 45.209,30.574 45.172,30.482ZM9.879,20.419L9.897,20.401C9.971,20.291 10.044,20.18 10.118,20.052C10.136,20.015 10.173,19.979 10.191,19.942C10.246,19.85 10.302,19.777 10.357,19.685C10.448,19.556 10.522,19.428 10.614,19.318C10.687,19.207 10.761,19.116 10.834,19.005C10.852,18.987 10.871,18.95 10.889,18.932C11.054,18.712 11.22,18.473 11.385,18.253C12.505,16.728 13.644,15.425 14.782,14.36C15.902,13.294 17.059,12.432 18.216,11.789C18.271,11.752 18.344,11.715 18.399,11.697C18.436,11.679 18.473,11.66 18.491,11.642C18.455,11.66 18.418,11.679 18.399,11.697C18.344,11.734 18.271,11.77 18.216,11.789C17.059,12.432 15.902,13.294 14.782,14.36C13.644,15.425 12.505,16.747 11.385,18.253C11.201,18.51 11.018,18.767 10.834,19.024C10.761,19.134 10.687,19.226 10.614,19.336C10.522,19.464 10.448,19.575 10.357,19.703C10.302,19.795 10.246,19.868 10.191,19.96C10.173,19.997 10.136,20.034 10.118,20.07C10.044,20.18 9.971,20.291 9.897,20.419L9.879,20.419C9.806,20.548 9.714,20.676 9.64,20.805C9.732,20.676 9.806,20.548 9.879,20.419ZM42.363,28.297L40.031,28.187C39.902,28.187 39.865,28.26 39.957,28.352L41.5,29.894C40.049,30.28 38.598,30.721 37.184,31.198C35.238,31.859 33.347,32.612 31.529,33.457C30.923,33.732 30.335,34.026 29.747,34.32C29.233,34.577 28.701,34.889 28.205,35.183C27.434,35.642 26.626,36.119 25.818,36.432C25.212,36.652 24.624,36.78 24.018,36.78C23.412,36.78 22.806,36.67 22.219,36.432C21.411,36.119 20.603,35.642 19.832,35.183C19.336,34.889 18.803,34.577 18.289,34.32C17.702,34.026 17.114,33.732 16.508,33.457C14.69,32.612 12.799,31.859 10.852,31.198C9.438,30.721 7.988,30.28 6.537,29.894L8.08,28.352C8.171,28.26 8.135,28.187 8.006,28.187L5.674,28.297L5.601,28.297C6.39,26.516 7.308,24.716 8.355,22.953C8.722,22.329 9.071,21.76 9.42,21.209C9.512,21.062 9.604,20.915 9.695,20.787C9.769,20.658 9.861,20.529 9.934,20.401L9.953,20.383C10.026,20.272 10.1,20.162 10.173,20.034C10.191,19.997 10.228,19.96 10.246,19.924C10.302,19.832 10.357,19.758 10.412,19.666C10.504,19.538 10.577,19.409 10.669,19.299C10.742,19.189 10.816,19.097 10.889,18.987C12.964,16.049 15.572,13.074 18.859,11.44C19.464,11.146 20.089,10.889 20.713,10.687C20.75,10.761 20.787,10.834 20.823,10.907C20.878,11.036 20.952,11.146 21.007,11.275C21.044,11.33 21.08,11.385 21.099,11.458C21.172,11.587 21.246,11.715 21.319,11.844C21.356,11.917 21.411,11.991 21.448,12.046C21.521,12.156 21.595,12.266 21.668,12.395C21.723,12.468 21.76,12.542 21.815,12.615C21.888,12.725 21.962,12.836 22.035,12.927C22.09,13.001 22.145,13.056 22.182,13.129C22.256,13.239 22.347,13.331 22.421,13.441C22.476,13.496 22.531,13.57 22.568,13.625C22.66,13.735 22.751,13.845 22.843,13.937C22.88,13.992 22.935,14.047 22.972,14.084C23.119,14.231 23.266,14.378 23.412,14.525C23.412,14.525 23.945,15.039 23.963,15.039C23.982,15.039 24.514,14.525 24.514,14.525C24.661,14.378 24.808,14.231 24.955,14.084C25.01,14.029 25.047,13.992 25.083,13.937C25.175,13.827 25.267,13.735 25.359,13.625C25.414,13.57 25.469,13.496 25.506,13.441C25.598,13.331 25.671,13.239 25.744,13.129C25.8,13.056 25.855,13.001 25.891,12.927C25.965,12.817 26.038,12.725 26.112,12.615C26.167,12.542 26.203,12.468 26.259,12.395C26.332,12.285 26.406,12.174 26.479,12.046C26.516,11.972 26.571,11.899 26.608,11.844C26.681,11.715 26.754,11.587 26.828,11.458C26.865,11.403 26.901,11.348 26.92,11.275C26.993,11.146 27.048,11.036 27.103,10.907C27.14,10.834 27.177,10.761 27.214,10.687C27.838,10.889 28.462,11.128 29.068,11.44C32.355,13.074 34.963,16.049 37.038,18.987C37.111,19.097 37.184,19.189 37.258,19.299C37.35,19.428 37.423,19.538 37.515,19.666C37.57,19.758 37.625,19.832 37.68,19.924C37.699,19.96 37.735,19.997 37.754,20.034C37.827,20.144 37.901,20.254 37.974,20.383L37.992,20.401C38.066,20.529 38.158,20.658 38.231,20.787C38.323,20.933 38.415,21.08 38.507,21.209C38.855,21.76 39.204,22.329 39.572,22.953C40.618,24.716 41.536,26.497 42.326,28.297C42.399,28.315 42.363,28.297 42.363,28.297Z" style="fill:rgb(38,31,70);fill-rule:nonzero;"/>
    <path d="M10.907,18.932C10.889,18.95 10.871,18.987 10.852,19.005C11.036,18.748 11.22,18.491 11.403,18.234C11.22,18.473 11.054,18.711 10.907,18.932Z" style="fill:rgb(38,31,70);fill-rule:nonzero;"/>
</svg>
