<svg width="176" height="40" viewBox="0 0 176 40" fill="none" xmlns="http://www.w3.org/2000/svg">
<path d="M20.618 21.5212C20.7826 20.2286 21.8965 19.2547 23.2097 19.2547C23.3188 19.2547 23.4286 19.261 23.539 19.2749C24.9698 19.4527 25.9875 20.7504 25.8075 22.1679C25.6296 23.567 24.3369 24.5954 22.8865 24.4136C21.4559 24.2361 20.4382 22.9379 20.618 21.5212ZM13.3028 21.0012C13.4122 21.0012 13.5226 21.0073 13.6334 21.0211C14.325 21.1079 14.9424 21.456 15.3714 22.0033C15.8003 22.5499 15.9888 23.2282 15.9018 23.9132C15.7375 25.2056 14.6226 26.1795 13.3084 26.1795C13.1997 26.1795 13.0903 26.1733 12.9805 26.1589C12.2879 26.0733 11.6705 25.7247 11.2415 25.1783C10.8135 24.6322 10.6256 23.9534 10.7129 23.2674C10.8769 21.975 11.9899 21.0012 13.3028 21.0012ZM26.1036 8.41618L26.6404 7.98324L26.3026 9.21456L26.8999 9.45096C27.1258 9.53988 32.3692 11.7507 30.3372 21.7407L29.9915 21.6635C29.5996 20.4372 28.4355 16.8458 27.3406 13.9458L27.0507 13.178L26.3215 13.5668C26.2881 13.5846 22.8903 15.3931 20.2253 16.3561C16.9135 17.5529 11.8208 18.3679 9.88504 18.6497C10.781 13.5894 11.3825 10.7615 16.7284 8.50324C18.2262 7.87189 19.8752 7.55088 21.6297 7.55088C23.2201 7.55088 24.3382 7.82348 24.4599 7.85414L24.9613 7.98812L25.2802 7.51371L26.1036 8.41618ZM9.28084 23.0886C9.14552 24.1542 9.43726 25.2077 10.1017 26.0552C10.766 26.9028 11.7246 27.4433 12.8 27.5773C12.972 27.5988 13.1429 27.6089 13.3116 27.6089C15.3493 27.6089 17.0788 26.0969 17.3339 24.0917C17.3581 23.9022 17.3506 23.7166 17.3477 23.5305L19.3692 23.0915C19.8449 24.5197 21.1023 25.6315 22.7061 25.8318C22.8776 25.8529 23.0473 25.8634 23.216 25.8634C25.255 25.8634 26.9848 24.3513 27.2396 22.3463C27.5187 20.1478 25.9396 18.1346 23.7191 17.8571C21.4672 17.5796 19.4627 19.171 19.1861 21.3422C19.172 21.4532 19.1827 21.5608 19.178 21.6703L17.0664 22.129C16.5389 20.8074 15.3357 19.7934 13.814 19.6036C13.5619 19.5719 13.3147 19.5719 13.0708 19.5858C15.4487 19.1614 18.4247 18.5282 20.7201 17.6988C22.7474 16.9664 25.1285 15.7907 26.2717 15.2061C27.4332 18.3707 28.603 22.0544 28.7383 22.481L28.8625 22.8747L31.4338 23.4536L31.5937 22.7566C33.8657 12.8422 29.6086 9.3418 28.0003 8.4057L28.4907 5.48974L26.2906 6.48903L25.1065 5.1893L24.3199 6.36179C23.7821 6.26029 22.8281 6.12167 21.6297 6.12167C19.6784 6.12167 17.8385 6.4808 16.1617 7.18969C9.97997 9.79961 9.36818 13.2688 8.35523 19.0165L8.12402 20.3238L9.09475 20.2028C9.38214 20.1665 10.5584 20.0114 12.1332 19.748C10.6375 20.1976 9.4848 21.4829 9.28084 23.0886Z" fill="#4D5566"/>
<path d="M36.2369 8.34298C33.0198 3.84608 28.243 0.951786 22.7862 0.192623C21.8677 0.0650063 20.9351 0 20.0137 0C10.109 0 1.59124 7.38631 0.20046 17.182C-0.546634 22.4461 0.809421 27.6881 4.01934 31.9416C7.22982 36.1963 11.9041 38.9437 17.1806 39.6777C18.6008 39.8752 19.9784 39.9718 21.3922 39.9718C23.8673 39.9718 23.9441 40.0353 26.5545 39.9718C28.3176 39.9286 30.2373 39.9316 30.2373 39.9316C30.2373 39.9316 30.2586 38.2909 30.1848 38.1207C30.1848 38.1207 25.1801 38.2191 22.384 38.2191C20.9887 38.2191 18.8297 38.0207 17.4433 37.8279C12.6648 37.1631 8.43113 34.6746 5.52243 30.8203C2.61309 26.9654 1.38347 22.2137 2.06112 17.4408C3.32169 8.56253 11.0383 1.86736 20.0114 1.86736C20.8459 1.86736 21.6911 1.92567 22.5231 2.04185C27.4316 2.72496 31.739 5.32949 34.6257 9.33121C36.4398 12.5216 37.1221 16.1566 36.5986 19.8431C35.4636 27.839 28.7903 33.8691 21.0761 33.8691C20.3956 33.8691 19.7068 33.8209 19.029 33.7267C15.9894 33.3043 13.1822 31.9582 10.9109 29.833L10.5443 29.4896L9.44639 31.0638L9.76359 31.3551C12.2979 33.6783 15.4088 35.1529 18.7603 35.6193C19.5236 35.7251 20.2994 35.7793 21.0666 35.7793C29.7802 35.7793 37.2578 29.0385 38.4597 20.0989C39.0385 15.7964 38.213 11.4095 36.2369 8.34298Z" fill="#4D5566"/>
<path d="M17.079 28.4073L16.4937 29.1627C17.2549 29.7414 18.1538 30.0208 19.0463 30.0208C20.3088 30.0208 21.5586 29.4617 22.3846 28.3953L21.6216 27.8146C20.5349 29.2186 18.4972 29.4835 17.079 28.4073Z" fill="#4D5566"/>
<path d="M48.7324 12.1128H51.83L55.7194 24.0812L59.7257 12.0669H62.1474L66.1532 24.0812L70.0426 12.1128H73.0474L67.3643 28.3704H64.8957L60.8899 16.7714L56.8841 28.3704H54.4155L48.7324 12.1128Z" fill="#4D5566"/>
<path d="M80.7037 21.3142C80.5177 19.5159 79.4462 18.1091 77.5829 18.1091C75.8597 18.1091 74.6486 19.4233 74.3921 21.3142H80.7037ZM71.5974 22.1676C71.5974 18.6853 74.0897 15.8259 77.6061 15.8259C81.5192 15.8259 83.4989 18.8701 83.4989 22.3752C83.4989 22.5594 83.4752 23.0205 83.452 23.1592H74.4158C74.7182 25.1424 76.139 26.2493 77.9559 26.2493C79.3298 26.2493 80.308 25.7416 81.2863 24.7965L82.9399 26.2493C81.7752 27.6325 80.1684 28.5322 77.909 28.5322C74.3457 28.5322 71.5974 25.9722 71.5974 22.1676Z" fill="#4D5566"/>
<path d="M95.185 22.1441C95.185 19.7921 93.5777 18.247 91.668 18.247C89.7584 18.247 88.0816 19.8151 88.0816 22.1905C88.0816 24.5426 89.7584 26.0874 91.668 26.0874C93.6014 26.0874 95.185 24.5889 95.185 22.1441ZM88.1511 26.3645V28.2552H85.3333V11.4213H88.1511V18.109C89.0598 16.8403 90.3405 15.8259 92.3202 15.8259C95.2313 15.8259 98.0497 18.109 98.0497 22.1905C98.0497 26.2262 95.2545 28.5088 92.3202 28.5088C90.2941 28.5088 89.013 27.4942 88.1511 26.3645Z" fill="#4D5566"/>
<path d="M100.771 12.1129H105.29V18.1547H111.089V12.1129H115.607V28.2551H111.089V22.121H105.29V28.2551H100.771V12.1129Z" fill="#90B725"/>
<path d="M130.885 20.1843C130.885 17.8549 129.185 15.8259 126.693 15.8259C124.224 15.8259 122.57 17.8089 122.57 20.1843C122.57 22.5134 124.271 24.5426 126.739 24.5426C129.231 24.5426 130.885 22.5594 130.885 20.1843ZM117.936 20.1843C117.936 15.5494 121.709 11.7901 126.739 11.7901C131.77 11.7901 135.496 15.503 135.496 20.1843C135.496 24.8195 131.723 28.5781 126.693 28.5781C121.662 28.5781 117.936 24.8655 117.936 20.1843Z" fill="#90B725"/>
<path d="M136.342 25.8569L138.858 22.8823C140.464 24.1508 142.258 24.8196 144.144 24.8196C145.355 24.8196 146.007 24.4044 146.007 23.6663C146.007 22.9976 145.472 22.6287 143.259 22.1212C139.789 21.3372 137.111 20.3686 137.111 17.0022C137.111 14.004 139.51 11.8366 143.422 11.8366C146.194 11.8366 148.359 12.5742 150.129 13.981L147.871 17.1405C146.38 16.1023 144.75 15.5494 143.306 15.5494C142.211 15.5494 141.675 16.0105 141.675 16.6327C141.675 17.3708 142.234 17.6937 144.494 18.2013C148.243 19.0081 150.572 20.2074 150.572 23.2745C150.572 26.5722 147.941 28.5322 143.981 28.5322C141.093 28.5322 138.345 27.6325 136.342 25.8569Z" fill="#90B725"/>
<path d="M156.55 16.0333H151.659V12.1129H165.959V16.0333H161.068V28.2551H156.55V16.0333Z" fill="#90B725"/>
<path d="M171.552 16.1716L168.803 16.7944L167.941 13.3351L172.716 11.9976H176V28.2551H171.552V16.1716Z" fill="#90B725"/>
</svg>
